<?xml version="1.0" encoding="utf-8"?>
<!-- Generator: Adobe Illustrator 21.0.2, SVG Export Plug-In . SVG Version: 6.00 Build 0)  -->
<svg version="1.1" id="Isolation_Mode" xmlns="http://www.w3.org/2000/svg" xmlns:xlink="http://www.w3.org/1999/xlink" x="0px"
	 y="0px" viewBox="0 0 759.7 759.7" style="enable-background:new 0 0 759.7 759.7;" xml:space="preserve">
<style type="text/css">
	.st0{fill:#0E1219;}
	.st1{opacity:0.25;fill:none;stroke:#FFFFFF;stroke-width:24.4916;stroke-miterlimit:10;enable-background:new    ;}
	.st2{opacity:0.54;fill:none;stroke:#FFFFFF;stroke-width:24.4916;stroke-miterlimit:10;enable-background:new    ;}
	.st3{fill:none;stroke:#FFFFFF;stroke-width:24.4916;stroke-miterlimit:10;}
	.st4{enable-background:new    ;}
	.st5{fill:#FFFFFF;}
</style>
<circle class="st0" cx="379.8" cy="379.8" r="379.8"/>
<path class="st1" d="M623.2,355.2c0,122.5-149.2,265.7-278.1,265.7S147.6,485.7,147.6,363.2s126-225,254.9-225
	C531.3,138.2,623.2,232.7,623.2,355.2z"/>
<path class="st2" d="M607.1,357.3c0,111.3-139.1,238.3-259.3,238.3s-184.2-119.7-184.2-231s108.1-201,228.2-201
	C512,163.5,607.1,246,607.1,357.3z"/>
<path class="st3" d="M588,363.2c0,110.9-124.4,205.1-237.3,205.1s-167-86.2-167-197.1s79.7-179.7,192.5-179.7S588,252.2,588,363.2z"
	/>
<g class="st4">
	<path class="st5" d="M326.9,261h99.7c37.3,0,68,23.9,68,65.1c0,52.3-41.2,83.7-92.5,83.7h-51.6l-14.7,84.3h-50L326.9,261z
		 M399.8,369.8c25.5,0,45.4-13.1,45.4-39.6c0-20.6-16-29.1-33.7-29.1h-41.8l-12.1,68.6H399.8z"/>
</g>
</svg>
